<svg width="300" height="450" viewBox="0 0 300 450" fill="none" xmlns="http://www.w3.org/2000/svg">
    <rect width="300" height="450" fill="#E5E5E5"/>
    <path d="M150 160C137.333 160 127 170.333 127 183C127 195.667 137.333 206 150 206C162.667 206 173 195.667 173 183C173 170.333 162.667 160 150 160ZM150 206C137.333 206 127 216.333 127 229C127 241.667 137.333 252 150 252C162.667 252 173 241.667 173 229C173 216.333 162.667 206 150 206Z" fill="#A0A0A0"/>
    <path d="M127 275H173V290H127V275Z" fill="#A0A0A0"/>
    <text x="150" y="340" font-family="Arial" font-size="16" fill="#808080" text-anchor="middle">Нет обложки</text>
</svg> 